<?xml version="1.0" encoding="UTF-8"?>
<svg id="Layer_2" data-name="Layer 2" xmlns="http://www.w3.org/2000/svg" viewBox="0 0 412.95 42.01">
  <defs>
    <style>
      .cls-1 {
        fill: #c1272d;
      }

      .cls-2 {
        fill: #333;
      }
    </style>
  </defs>
  <g id="Camada_1" data-name="Camada 1">
    <g>
      <g>
        <ellipse class="cls-1" cx="5.18" cy="6.79" rx="5.18" ry="5.2"/>
        <path class="cls-1" d="M19.51,11.93l41.78-.04c2.75-.09,4.9-2.39,4.82-5.14.08-2.75-2.07-5.04-4.82-5.14H19.51c-2.74.1-4.89,2.39-4.81,5.14-.05,1.33.43,2.62,1.34,3.59.9.97,2.15,1.54,3.47,1.58Z"/>
      </g>
      <g>
        <path class="cls-2" d="M81.56.94h23.39v6.08h-15.99v11.16h14.87v6.03h-14.87v17.18h-7.39V.94Z"/>
        <path class="cls-2" d="M110.53,21.56c0-3.91-.08-6.79-.24-9.39h6.4l.27,5.55h.21c1.44-4.11,4.84-6.21,8-6.21.72,0,1.14.03,1.73.16v6.96c-.63-.13-1.27-.21-2.17-.21-3.52,0-5.96,2.24-6.62,5.59-.12.65-.19,1.43-.19,2.23v15.15h-7.39v-19.82Z"/>
        <path class="cls-2" d="M136.55,28.82c.2,5.29,4.29,7.61,9.02,7.61,3.4,0,5.83-.53,8.06-1.35l1.09,5.08c-2.5,1.06-5.97,1.85-10.21,1.85-9.48,0-15.04-5.86-15.04-14.81,0-8.06,4.89-15.69,14.28-15.69s12.59,7.81,12.59,14.21c0,1.37-.12,2.47-.26,3.1h-19.54ZM149.4,23.67c.03-2.71-1.14-7.12-6.09-7.12-4.55,0-6.44,4.13-6.77,7.12h12.86Z"/>
        <path class="cls-2" d="M167.51,28.82c.2,5.29,4.29,7.61,9.02,7.61,3.4,0,5.83-.53,8.06-1.35l1.09,5.08c-2.5,1.06-5.97,1.85-10.21,1.85-9.48,0-15.04-5.86-15.04-14.81,0-8.06,4.89-15.69,14.28-15.69s12.59,7.81,12.59,14.21c0,1.37-.12,2.47-.26,3.1h-19.54ZM180.35,23.67c.03-2.71-1.14-7.12-6.09-7.12-4.55,0-6.44,4.13-6.77,7.12h12.86Z"/>
        <path class="cls-2" d="M205.8,33.32c2.38,1.37,6.01,2.58,9.77,2.58,4.71,0,7.35-2.21,7.35-5.52,0-3.05-2.05-4.85-7.17-6.71-6.68-2.37-10.95-5.95-10.95-11.75,0-6.62,5.54-11.61,14.31-11.61,4.38,0,7.59.93,9.69,2l-1.77,5.96c-1.46-.76-4.28-1.92-8.08-1.92-4.69,0-6.68,2.5-6.68,4.87,0,3.1,2.34,4.56,7.74,6.62,7.02,2.68,10.4,6.21,10.4,12.02,0,6.5-4.9,12.15-15.33,12.15-4.28,0-8.72-1.22-10.93-2.57l1.63-6.12Z"/>
        <path class="cls-2" d="M242.39,28.82c.2,5.29,4.29,7.61,9.02,7.61,3.4,0,5.83-.53,8.06-1.35l1.09,5.08c-2.5,1.06-5.97,1.85-10.21,1.85-9.48,0-15.04-5.86-15.04-14.81,0-8.06,4.89-15.69,14.28-15.69s12.59,7.81,12.59,14.21c0,1.37-.12,2.47-.26,3.1h-19.54ZM255.23,23.67c.03-2.71-1.14-7.12-6.09-7.12-4.55,0-6.44,4.13-6.77,7.12h12.86Z"/>
        <path class="cls-2" d="M268.14,21.56c0-3.91-.08-6.79-.24-9.39h6.4l.27,5.55h.21c1.44-4.11,4.84-6.21,8-6.21.72,0,1.14.03,1.73.16v6.96c-.63-.13-1.27-.21-2.17-.21-3.52,0-5.96,2.24-6.62,5.59-.12.65-.19,1.43-.19,2.23v15.15h-7.39v-19.82Z"/>
        <path class="cls-2" d="M295.49,12.17l4.73,14.83c.83,2.57,1.45,4.92,1.99,7.3h.18c.55-2.42,1.2-4.71,1.99-7.3l4.63-14.83h7.76l-11.15,29.21h-7.27l-10.84-29.21h7.99Z"/>
        <path class="cls-2" d="M329.13,3.99c0,2.21-1.59,3.98-4.21,3.98-2.45,0-4.06-1.78-4.05-3.98,0-2.25,1.65-3.99,4.13-3.99s4.1,1.72,4.12,3.99ZM321.31,41.38V12.17h7.39v29.21h-7.39Z"/>
        <path class="cls-2" d="M358.1,40.5c-1.53.72-4.58,1.51-8.24,1.51-9.16,0-15.06-5.87-15.06-14.94s5.98-15.54,16.25-15.54c2.73,0,5.44.6,7.13,1.33l-1.31,5.55c-1.19-.58-2.96-1.14-5.59-1.14-5.63,0-8.97,4.12-8.94,9.47,0,5.99,3.94,9.43,8.97,9.43,2.53,0,4.36-.55,5.8-1.15l.99,5.49Z"/>
        <path class="cls-2" d="M368.27,28.82c.2,5.29,4.29,7.61,9.02,7.61,3.4,0,5.83-.53,8.06-1.35l1.09,5.08c-2.5,1.06-5.97,1.85-10.21,1.85-9.48,0-15.04-5.86-15.04-14.81,0-8.06,4.89-15.69,14.28-15.69s12.59,7.81,12.59,14.21c0,1.37-.12,2.47-.26,3.1h-19.54ZM381.11,23.67c.03-2.71-1.14-7.12-6.09-7.12-4.55,0-6.44,4.13-6.77,7.12h12.86Z"/>
        <path class="cls-2" d="M393.67,34.58c1.63,1.01,4.81,2.13,7.45,2.13,3.25,0,4.7-1.36,4.7-3.28s-1.21-2.98-4.8-4.26c-5.72-1.96-8.1-5.07-8.07-8.53,0-5.14,4.27-9.14,11.08-9.14,3.22,0,6.03.8,7.75,1.74l-1.46,5.18c-1.23-.7-3.59-1.68-6.18-1.68s-4.09,1.3-4.09,3.09,1.41,2.75,5.1,4.09c5.32,1.88,7.77,4.59,7.79,8.9,0,5.33-4.15,9.17-11.86,9.17-3.53,0-6.75-.85-8.9-2.05l1.48-5.38Z"/>
      </g>
      <ellipse class="cls-1" cx="5.18" cy="21.73" rx="5.18" ry="5.2"/>
      <path class="cls-1" d="M19.51,26.86l46.33-.04c2.75-.09,4.9-2.39,4.82-5.14.08-2.75-2.07-5.04-4.82-5.14H19.51c-2.74.1-4.89,2.39-4.81,5.14-.05,1.33.43,2.62,1.34,3.59.9.97,2.15,1.54,3.47,1.58Z"/>
      <ellipse class="cls-1" cx="5.18" cy="36.39" rx="5.18" ry="5.2"/>
      <path class="cls-1" d="M19.51,41.52l28.12-.04c2.75-.09,4.9-2.39,4.82-5.14.08-2.75-2.07-5.04-4.82-5.14h-28.13c-2.74.1-4.89,2.39-4.81,5.14-.05,1.33.43,2.62,1.34,3.59.9.97,2.15,1.54,3.47,1.58Z"/>
    </g>
  </g>
</svg>