<?xml version="1.0" encoding="UTF-8"?>
<svg id="Layer_2" data-name="Layer 2" xmlns="http://www.w3.org/2000/svg" viewBox="0 0 456.38 54">
  <defs>
    <style>
      .cls-1 {
        fill: #c1272d;
      }

      .cls-2 {
        fill: #333;
      }
    </style>
  </defs>
  <g id="Camada_1" data-name="Camada 1">
    <g>
      <g>
        <ellipse class="cls-1" cx="5.18" cy="7.3" rx="5.18" ry="5.2"/>
        <path class="cls-1" d="M19.51,12.44l41.78-.04c2.75-.09,4.9-2.39,4.82-5.14.08-2.75-2.07-5.04-4.82-5.14H19.51c-2.74.1-4.89,2.39-4.81,5.14-.05,1.33.43,2.62,1.34,3.59.9.97,2.15,1.54,3.47,1.58Z"/>
      </g>
      <g>
        <path class="cls-2" d="M81.42,33.83c2.38,1.37,6.01,2.58,9.77,2.58,4.71,0,7.35-2.21,7.35-5.52,0-3.05-2.05-4.85-7.17-6.71-6.68-2.37-10.95-5.95-10.95-11.75,0-6.62,5.54-11.61,14.31-11.61,4.38,0,7.59.93,9.69,2l-1.77,5.96c-1.46-.76-4.28-1.92-8.08-1.92-4.69,0-6.68,2.5-6.68,4.87,0,3.1,2.34,4.56,7.74,6.62,7.02,2.68,10.4,6.21,10.4,12.02,0,6.5-4.9,12.15-15.33,12.15-4.28,0-8.72-1.22-10.93-2.57l1.63-6.12Z"/>
        <path class="cls-2" d="M118.01,29.32c.2,5.29,4.29,7.61,9.02,7.61,3.4,0,5.83-.53,8.06-1.35l1.09,5.08c-2.5,1.06-5.97,1.85-10.21,1.85-9.48,0-15.04-5.86-15.04-14.81,0-8.06,4.89-15.69,14.28-15.69s12.59,7.81,12.59,14.21c0,1.37-.12,2.47-.26,3.1h-19.54ZM130.85,24.17c.03-2.71-1.14-7.12-6.09-7.12-4.55,0-6.44,4.13-6.77,7.12h12.86Z"/>
        <path class="cls-2" d="M143.76,22.06c0-3.91-.08-6.79-.24-9.39h6.4l.27,5.55h.21c1.44-4.11,4.84-6.21,8-6.21.72,0,1.14.03,1.73.16v6.96c-.63-.13-1.27-.21-2.17-.21-3.52,0-5.96,2.24-6.62,5.59-.12.65-.19,1.43-.19,2.23v15.15h-7.39v-19.82Z"/>
        <path class="cls-2" d="M171.11,12.67l4.73,14.83c.83,2.57,1.45,4.92,1.99,7.3h.18c.55-2.42,1.2-4.71,1.99-7.3l4.63-14.83h7.76l-11.15,29.21h-7.27l-10.84-29.21h7.99Z"/>
        <path class="cls-2" d="M204.75,4.5c0,2.21-1.59,3.98-4.21,3.98-2.45,0-4.06-1.78-4.05-3.98,0-2.25,1.65-3.99,4.13-3.99s4.1,1.72,4.12,3.99ZM196.93,41.88V12.67h7.39v29.21h-7.39Z"/>
        <path class="cls-2" d="M233.72,41c-1.53.72-4.58,1.51-8.24,1.51-9.16,0-15.06-5.87-15.06-14.94s5.98-15.54,16.25-15.54c2.73,0,5.44.6,7.13,1.33l-1.31,5.55c-1.19-.58-2.96-1.14-5.59-1.14-5.63,0-8.97,4.12-8.94,9.47,0,5.99,3.94,9.43,8.97,9.43,2.53,0,4.36-.55,5.8-1.15l.99,5.49ZM227.09,41.68l-1.77,3c2.24.29,4.27,1.88,4.27,4.26,0,3.74-3.21,5.06-6.83,5.06-1.71,0-3.38-.43-4.49-1.12l1.06-3.01c1.01.59,2.27.93,3.27.93,1.18,0,2.34-.43,2.32-1.7-.02-1.33-1.58-2.09-4.67-2.33l2.69-5.09h4.15Z"/>
        <path class="cls-2" d="M266.44,26.99c0,10.74-7.54,15.55-15,15.55-8.24,0-14.62-5.69-14.62-15.05s6.31-15.48,15.11-15.48,14.51,6.12,14.51,14.98ZM244.41,27.31c0,5.62,2.81,9.87,7.26,9.87s7.18-4.09,7.18-9.96c0-4.59-2.03-9.83-7.13-9.83s-7.31,5.06-7.31,9.93Z"/>
        <path class="cls-2" d="M272.17,35.09c1.63,1.01,4.81,2.13,7.45,2.13,3.25,0,4.7-1.36,4.7-3.28s-1.21-2.98-4.8-4.26c-5.72-1.96-8.1-5.07-8.07-8.53,0-5.14,4.27-9.14,11.08-9.14,3.22,0,6.03.8,7.75,1.74l-1.46,5.18c-1.23-.7-3.59-1.68-6.18-1.68s-4.09,1.3-4.09,3.09,1.41,2.75,5.1,4.09c5.32,1.88,7.77,4.59,7.79,8.9,0,5.33-4.15,9.17-11.86,9.17-3.53,0-6.75-.85-8.9-2.05l1.48-5.38Z"/>
        <path class="cls-2" d="M342.66,40.04c-2.61.94-7.64,2.25-13.02,2.25-6.82,0-12.03-1.71-15.85-5.39-3.61-3.44-5.69-8.75-5.68-14.85.03-12.83,9.16-21.01,22.54-21.01,4.98,0,8.85,1.01,10.73,1.9l-1.64,5.95c-2.2-.97-4.91-1.72-9.19-1.72-8.61,0-14.69,5.1-14.69,14.5s5.67,14.62,14.04,14.62c2.67,0,4.64-.35,5.58-.8v-10.09h-7.12v-5.8h14.29v20.45Z"/>
        <path class="cls-2" d="M350.1,22.06c0-3.91-.08-6.79-.24-9.39h6.4l.27,5.55h.21c1.44-4.11,4.84-6.21,8-6.21.72,0,1.14.03,1.73.16v6.96c-.63-.13-1.27-.21-2.17-.21-3.52,0-5.96,2.24-6.62,5.59-.12.65-.19,1.43-.19,2.23v15.15h-7.39v-19.82Z"/>
        <path class="cls-2" d="M387.36,41.88l-.51-3.25h-.18c-1.77,2.3-4.83,3.91-8.61,3.91-5.93,0-9.21-4.23-9.21-8.69,0-7.37,6.57-11.1,17.33-11.06v-.48c0-1.92-.76-5.11-5.93-5.09-2.86,0-5.86.92-7.85,2.18l-1.46-4.79c2.21-1.34,5.99-2.59,10.59-2.59,9.37,0,12.04,5.91,12.04,12.31v10.52c0,2.66.13,5.23.45,7.04h-6.66ZM386.38,27.58c-5.21-.07-10.2,1.03-10.2,5.48,0,2.86,1.88,4.21,4.21,4.21,2.95,0,5.07-1.9,5.78-4.04.16-.51.21-1.09.21-1.61v-4.04ZM390.89,0l-7.33,8.88h-5.12l5.21-8.88h7.24Z"/>
        <path class="cls-2" d="M409.5,4.31v8.37h7.03v5.5h-7.03v12.89c0,3.58.95,5.39,3.78,5.39,1.26,0,2.21-.14,2.87-.32l.15,5.62c-1.11.42-3.05.76-5.37.76-2.71,0-4.98-.92-6.35-2.41-1.59-1.68-2.31-4.37-2.31-8.19v-13.74h-4.17v-5.5h4.17v-6.62l7.24-1.75Z"/>
        <path class="cls-2" d="M429.93,4.5c0,2.21-1.59,3.98-4.21,3.98-2.45,0-4.06-1.78-4.05-3.98,0-2.25,1.65-3.99,4.13-3.99s4.1,1.72,4.12,3.99ZM422.11,41.88V12.67h7.39v29.21h-7.39Z"/>
        <path class="cls-2" d="M437.11,35.09c1.63,1.01,4.81,2.13,7.45,2.13,3.25,0,4.7-1.36,4.7-3.28s-1.21-2.98-4.8-4.26c-5.72-1.96-8.1-5.07-8.07-8.53,0-5.14,4.27-9.14,11.08-9.14,3.22,0,6.03.8,7.75,1.74l-1.46,5.18c-1.23-.7-3.59-1.68-6.18-1.68s-4.09,1.3-4.09,3.09,1.41,2.75,5.1,4.09c5.32,1.88,7.77,4.59,7.79,8.9,0,5.33-4.15,9.17-11.86,9.17-3.53,0-6.75-.85-8.9-2.05l1.48-5.38Z"/>
      </g>
      <ellipse class="cls-1" cx="5.18" cy="22.23" rx="5.18" ry="5.2"/>
      <path class="cls-1" d="M19.51,27.37l46.33-.04c2.75-.09,4.9-2.39,4.82-5.14.08-2.75-2.07-5.04-4.82-5.14H19.51c-2.74.1-4.89,2.39-4.81,5.14-.05,1.33.43,2.62,1.34,3.59.9.97,2.15,1.54,3.47,1.58Z"/>
      <ellipse class="cls-1" cx="5.18" cy="36.89" rx="5.18" ry="5.2"/>
      <path class="cls-1" d="M19.51,42.03l28.12-.04c2.75-.09,4.9-2.39,4.82-5.14.08-2.75-2.07-5.04-4.82-5.14h-28.13c-2.74.1-4.89,2.39-4.81,5.14-.05,1.33.43,2.62,1.34,3.59.9.97,2.15,1.54,3.47,1.58Z"/>
    </g>
  </g>
</svg>